<?xml version="1.0" encoding="UTF-8"?>
<svg width="30px" height="39px" viewBox="0 0 30 39" version="1.1" xmlns="http://www.w3.org/2000/svg" xmlns:xlink="http://www.w3.org/1999/xlink">
    <!-- Generator: Sketch 46.2 (44496) - http://www.bohemiancoding.com/sketch -->
    <title>Group 2</title>
    <desc>Created with Sketch.</desc>
    <defs>
        <ellipse id="path-1" cx="13.125" cy="13.0421053" rx="13.125" ry="13.0421053"></ellipse>
        <filter x="-1.9%" y="-5.8%" width="103.8%" height="107.7%" filterUnits="objectBoundingBox" id="filter-2">
            <feOffset dx="0" dy="-1" in="SourceAlpha" result="shadowOffsetOuter1"></feOffset>
            <feColorMatrix values="0 0 0 0 0   0 0 0 0 0   0 0 0 0 0  0 0 0 0.497905344 0" type="matrix" in="shadowOffsetOuter1"></feColorMatrix>
        </filter>
        <path d="M12.1413665,0.0357368421 C5.25904661,0.535021053 -0.103072034,6.47433684 0.0361864407,13.3300632 C0.245815678,23.6505684 10.4838347,32.8910105 12.7032203,34.7748947 C12.9482203,34.9828316 13.3042267,34.9803263 13.5490784,34.7723895 C15.7976059,32.8633053 26.2164089,23.4538316 26.2164089,13.0090947 C26.2164089,5.50126316 19.8160805,-0.521094737 12.1413665,0.0357368421 Z M13.1247034,22.1154316 C8.06342161,22.1154316 3.96048729,18.0384105 3.96048729,13.0090947 C3.96048729,7.97977895 8.06342161,3.90268421 13.1247034,3.90268421 C18.1859852,3.90268421 22.2889195,7.97970526 22.2889195,13.0090211 C22.2889195,18.0383368 18.185911,22.1154316 13.1247034,22.1154316 Z" id="path-3"></path>
        <filter x="-9.5%" y="-4.3%" width="122.9%" height="117.2%" filterUnits="objectBoundingBox" id="filter-4">
            <feOffset dx="1" dy="0" in="SourceAlpha" result="shadowOffsetOuter1"></feOffset>
            <feColorMatrix values="0 0 0 0 0   0 0 0 0 0   0 0 0 0 0  0 0 0 0.501556839 0" type="matrix" in="shadowOffsetOuter1" result="shadowMatrixOuter1"></feColorMatrix>
            <feOffset dx="0" dy="2" in="SourceAlpha" result="shadowOffsetOuter2"></feOffset>
            <feGaussianBlur stdDeviation="0.5" in="shadowOffsetOuter2" result="shadowBlurOuter2"></feGaussianBlur>
            <feColorMatrix values="0 0 0 0 0   0 0 0 0 0   0 0 0 0 0  0 0 0 0.5 0" type="matrix" in="shadowBlurOuter2" result="shadowMatrixOuter2"></feColorMatrix>
            <feMerge>
                <feMergeNode in="shadowMatrixOuter1"></feMergeNode>
                <feMergeNode in="shadowMatrixOuter2"></feMergeNode>
            </feMerge>
        </filter>
        <path d="M12.8719174,34.7748211 C11.7671928,33.2118316 7.35385593,26.5836421 5.80940678,18.4777158 C4.65373941,16.9537789 3.96041314,15.0642211 3.96041314,13.0090947 C3.96041314,10.7539158 4.78995763,8.69422105 6.15636653,7.10367368 C7.37713983,3.19664211 9.74564619,0.372989474 12.5348199,0.0357368421 C12.6367797,0.0233578947 12.7563136,0.0126736842 12.8861547,0.00287368421 C12.6393008,0.00729473684 12.3911123,0.0176842105 12.1412924,0.0357368421 C5.25904661,0.535021053 -0.103072034,6.47433684 0.0361864407,13.3300632 C0.245815678,23.6505684 10.4838347,32.8910105 12.7032203,34.7748947 C12.8253496,34.8785684 12.9752119,34.9297053 13.125,34.9294105 C13.035053,34.9296316 12.9452542,34.8784947 12.8719174,34.7748211 Z" id="path-5"></path>
        <filter x="-22.9%" y="-5.7%" width="130.6%" height="111.5%" filterUnits="objectBoundingBox" id="filter-6">
            <feOffset dx="-1" dy="0" in="SourceAlpha" result="shadowOffsetOuter1"></feOffset>
            <feGaussianBlur stdDeviation="0.5" in="shadowOffsetOuter1" result="shadowBlurOuter1"></feGaussianBlur>
            <feColorMatrix values="0 0 0 0 0   0 0 0 0 0   0 0 0 0 0  0 0 0 0.557999321 0" type="matrix" in="shadowBlurOuter1"></feColorMatrix>
        </filter>
    </defs>
    <g id="Page-1" stroke="none" stroke-width="1" fill="none" fill-rule="evenodd">
        <g id="Group-2" transform="translate(2.000000, 1.000000)">
            <g id="Oval">
                <use fill="black" fill-opacity="1" filter="url(#filter-2)" xlink:href="#path-1"></use>
                <use fill="#1B2633" fill-rule="evenodd" xlink:href="#path-1"></use>
            </g>
            <g id="003-signs" fill-rule="nonzero">
                <g id="Group">
                    <g id="Shape">
                        <use fill="black" fill-opacity="1" filter="url(#filter-4)" xlink:href="#path-3"></use>
                        <use fill="#10D4E0" fill-rule="evenodd" xlink:href="#path-3"></use>
                    </g>
                    <path d="M13.1247034,18.8631579 C12.7629131,18.8631579 12.4668962,18.5687158 12.4668962,18.2095053 C12.4668962,17.8502947 12.762839,17.5558526 13.1247034,17.5558526 C13.4864936,17.5558526 13.7825106,17.8502947 13.7825106,18.2095053 C13.7825106,18.5687158 13.4864936,18.8631579 13.1247034,18.8631579 Z M13.7760593,18.2095053 L13.7846593,18.2095053 L13.7760593,18.2095053 Z M13.1247034,18.2095053 L13.1333034,18.2095053 L13.1247034,18.2095053 Z" id="Shape" fill="#10D4E0"></path>
                    <path d="M13.1247034,16.2612947 C12.7629131,16.2612947 12.4700847,15.9700211 12.4700847,15.6108105 L12.4700847,15.4164316 C12.4700847,14.5512316 13.0357945,13.8014211 13.8783157,13.5502316 C14.9759216,13.2233684 15.7429555,12.1984947 15.7429555,11.0580105 C15.7429555,9.64747368 14.5437606,8.45585263 13.1246292,8.45585263 C11.6805826,8.45585263 10.506303,9.62301053 10.506303,11.0576421 C10.506303,11.4168526 10.2135487,11.7081263 9.85168432,11.7081263 C9.48989407,11.7081263 9.19706568,11.4168526 9.19706568,11.0576421 C9.19706568,8.90554737 10.9587818,7.15488421 13.1246292,7.15488421 C15.2533263,7.15488421 17.0521186,8.94231579 17.0521186,11.0579368 C17.0521186,12.7682211 15.9014195,14.3057158 14.2541949,14.7964526 C13.970339,14.8808947 13.7792479,15.1302421 13.7792479,15.4164316 L13.7792479,15.6108105 C13.7792479,15.9700947 13.4864936,16.2612947 13.1247034,16.2612947 Z" id="Shape" fill="#10D4E0"></path>
                </g>
                <g id="Shape">
                    <use fill="black" fill-opacity="1" filter="url(#filter-6)" xlink:href="#path-5"></use>
                    <use fill="#02BAD0" fill-rule="evenodd" xlink:href="#path-5"></use>
                </g>
            </g>
        </g>
    </g>
</svg>