<svg id="Layer_1" data-name="Layer 1" xmlns="http://www.w3.org/2000/svg" viewBox="0 0 13491.21 270">
  <title>Artboard 1</title>
  <g>
    <path d="M4778.86,270H0V0H3781.86l-4.23,14.49,1.63.47,5.6-15h2c-1.21,3.39-2.65,6.72-3.59,10.19-1.81,6.64-7.32,13-2.37,20.1,2.64.38,6,1.82,7,.85,5-5,10.65-.65,15.65-1.81,3-.69,3.67,3.5,6,1.74,3-2.22,4.23.71,6.1,1.75,2.12,1.17,4.15,2.49,6.09,3.67L3822.9,34c1.89,1.23,3.2,2.76,4.63,2.89,4,.36,8,.12,12.34.12V0h423L4242,62.12l1.6.54q2.89-8.59,5.78-17.17,7.72-22.75,15.45-45.49h3c-4.65,12.95-9.23,25.91-14,38.83-1.67,4.56-4.5,8.85-5.32,13.52-.78,4.42-.28,9-3,13-.27.4,0,1.14-.06,1.71a48,48,0,0,1-.59,6.48c-.27,1.26-1.29,2.36-2.1,3.76l10-.87,2.18,3.45c2.53-1.35,11.53,2.22,13.17,5l2.09-4.44,1.6,4.06,16.25.92c2.86,6.08,4.78,12.84,4.87,16.95,0,.23.39.44.56.63,8.46-4.88,17.48-.05,26.38-1.21V0h426l-14.7,41.87,1.57.54,4.53-11.35,1.7,4.79-1-.29-1,5.6c-1.15,3.53-2.09,5.82-2.6,8.2-.25,1.17.69,3.48.37,3.62-4.71,2.06-2.38,6.51-3.54,9.7l-1.16-.35-1,7.79,2.24,5.3L4730,76l-2.34-4.13c-.87,1.3-.77,2.1-.44,2.79,2.84,6,1.71,10.44-4.47,13.52-.67.33-.55,2.69-.39,4.06.11.95,1.5,2,1.32,2.69-.7,2.77-1.8,5.44-2.85,8.39l-1.9-3.48-2.74,8.34a2.59,2.59,0,0,1,.15.61l-.26,2.54.14-.13c-4.11,6.05-7.53,12.42-8,19.88-.13,1.93.64,3.92,1,5.88l4.16-1.25,1,4.39c4.83-1.55,9.13-2,14.07.3,4.43,2.09,8.69,6.51,7.46,11.09-.52,1.95-.77,4-1.22,6.39,2.53-1.1,4.33-2.59,6-2.5,7.29.34,14.58,1,21.82,1.86,4.58.57,7.3,3.51,9.52,7.71,1.84,3.49,1.77,8.33,7.66,9.75,4.63,1.12,8.44,5.37,12.82,7.87,3,1.72,3.84,3.65,2.89,7-.84,2.95-.84,6.13-1.23,9.3,6.44-1.83,5.74-6.37,5.75-10.56q0-94.16,0-188.33h434c-2.43,4.52-1.4,10.09-6.08,15l7.44-1.39c-2.12,2.2-.14,6.43-4.87,5.1-.18,1.8-3.17,1.08-2.85,4.07.45,4.22-3.9,7.81-2.84,12.51a1.34,1.34,0,0,1-.67,1.07c-3,1.4-2.5,3.43-1.32,5.84,2.63,5.35,1.8,7.58-3.28,11.19-1.21.86-2.65,3.7-2.46,3.86,4.36,3.78,0,7.35-.24,10.91-.08,1-1.74,1.85-2.75,2.68-.86.7-2.39,1.08-2.67,1.92-3,9-6,17.91-8.62,27-4.6,16.12-9,32.31-13.32,48.49-1,3.69-1.35,7.57-2.43,11.23-.91,3.07-2.73,5.87-3.65,8.95-3.33,11.16-6.47,22.38-9.6,33.6a13.8,13.8,0,0,0-.13,3.79c0,2.28.23,4.57.13,6.84a56,56,0,0,1-.83,5.66c1.82-1.06,3.08-2.45,4.21-2.35,8.24.7,16.53,1.31,24.64,2.83,2.63.49,5.29,3.21,7,5.58,2.8,3.84,3.24,8.83,8.91,11.21,5.87,2.46,10.73,7.31,15.91,11l-1.7,13.54,9.19-5c.66.43,2.67,2.29,3.1,2,5.23-3.8,6.94,2.43,10.35,3.27,5.44,1.35,4.62,6.7,7.41,9.6h-476c1.77-16.92,4-33.79,6.61-50.62l-1.46-.19-1.7,9.61-1.1-2.19a8.63,8.63,0,0,0-.7,1.41c-2.91,11.12-5.92,22.22-8.59,33.39-.39,1.62.89,3.64,1.68,6.47Z"/>
    <path d="M6918.86,270h-24c1.07-4.12,2.82-7.92,3.37-12.38.62-5,4.09-9.67,6.25-14.51.24-.54,0-1.28.08-1.92.21-1.86.07-3.88.77-5.55,1.19-2.85,4.12-5.47,4.15-8.21.07-6,2.79-10.56,5.08-15.66,3-6.69,4.92-13.86,7.2-20.86a48.78,48.78,0,0,0,1.39-6.11c.45-2.38.43-4.91,1.26-7.14,1.11-3,3.21-5.62,4.19-8.63,1.11-3.43,1.18-7.18,2.2-10.65,2.16-7.4,4.62-14.72,7-22.05.35-1.07,1.21-2,1.51-3.06,1.23-4.48,2.34-9,3.49-13.49a5.06,5.06,0,0,1,.39-1.37c1.12-1.84,3.27-3.64,3.28-5.47.07-12.21,9.63-21.79,9.16-34.07a4.63,4.63,0,0,1,.33-1.38c3.93.93,2.88-2.74,3.22-4.12,1.11-4.59,1.48-9.35,2.23-14,.27-1.68.77-3.32,1.17-5a72.45,72.45,0,0,0-6.83,12.15c-6.88,16.91-10.79,34.78-18.32,51.65-6.5,14.55-12,30.2-13,46.67a23.66,23.66,0,0,0,.55,4.4l-1-.47-2.74,7.79-1.35-4.9-21.84,65.57-1.21-.34.61-4.6-2.38,5.47,1.53,0c.07,1.31.54,2.76.14,3.92-3.23,9.47-6.62,18.88-10,28.31h-10l-1.82-4.68,1.16-.39,1.62,2.61c2-6.11,3.74-11.38,5.5-16.63,8.14-24.17,16-48.44,24.6-72.44,2.78-7.74,6-15.24,7.44-23.41a24.53,24.53,0,0,1,3.28-8.75c2.9-4.56,2.84-9.12,1.45-13.78,7.36-5.68,6.13-15,9.09-21.26l-1.42-9.08c-2.18,5.61-4,10.09-5.67,14.63-5.33,14.72-10.57,29.48-16,44.19-.25.69-1.5,1-1.89,1.26-.09,1.83.17,3.89-.36,5.73-1.14,4-2.76,7.78-4.06,11.69q-11.1,33.4-22.15,66.82-3.9,11.76-7.83,23.5h-150V0h750c-.25,1.6-.2,3.34-.82,4.79-2.5,5.83-5.9,11.37-7.67,17.4-2,6.87-6,13.63-3.46,21.31L7455.63,41a22.67,22.67,0,0,0-1.48,4c-.91,6-4.33,11.18-3.91,17.88.28,4.52-.83,10.26-4.5,14.44a18.23,18.23,0,0,0-3.81,5.78c-7.17,21.34-14.14,42.75-21.24,64.12-1.34,4-2,9.14-4.84,11.64-3.09,2.72-3.82,6-5.57,9.08-.17.3,0,.8.08,1.72l3-3.77-4.1,13.27-1.4-1.28-2.17,2.59,3.49-.38c-1.47,3.84-2.81,7-3.93,10.31q-9.62,28.24-19.12,56.52a10,10,0,0,0-.19,2.48l-6.17,6.87c1.23-3.7,2.37-7.16,3.5-10.65q5.43-14.63,10.9-29.2l-1.26-.46c-2.63,7.24-5.35,14.45-7.84,21.75a68,68,0,0,0-1.74,8l-5.27,8.51c2.2-5.08,2.08-10.72,4.38-16,3.46-7.93,8.25-15.77,5.89-25.28-.51-2.07-.12-4.72,3.71-4.93,1.15-.06,2.11-3.74,3.15-5.77l-4.43-.55,2.63-6.08,1.89,3.44,5.88-32.07c1.61-1.29,3.13-1.9,3.52-2.93,1.24-3.28,1.92-6.76,3.06-10.08,2.19-6.35,4.78-12.56,6.8-19,2.51-8,4.36-16.14,6.95-24.07,2.3-7,5.13-13.92,7.9-20.79a36.32,36.32,0,0,1,2.89-5.18c.25-2.62.06-4.22.59-5.53,3.57-8.77,7.11-17.5,8.89-26.9.93-4.91,4.31-9.63,4.23-14.4-.08-5.33,3.11-8.94,4.46-13.39,2-6.7,5.3-13,3-21.25a24.17,24.17,0,0,0-1.65,2.92c-2.26,6.35-4.42,12.73-6.71,19.06-2.63,7.3-5.95,14.41-7.88,21.89-1.85,7.13-8.51,12.44-7.42,20.54,0,.14-.13.3-.18.46-3.8,11.46-7.56,22.94-11.41,34.39q-7.66,22.78-15.45,45.51c-3.41,9.94-6.93,19.83-10.66,30.47-6.11-5.47.1-11.76-3.22-18.38-1.89,3.06-3.92,5.13-4.48,7.54a18.88,18.88,0,0,1-7.26,11c-1.19.92-3.47,1.55-3.6,2.53-.69,5.3-3.8,8.61-7.28,12.43s-4.9,9.71-7.44,14.57a50.36,50.36,0,0,1-4.26,5.94l-1.5-.87V201.1c1.7-5.78,3.35-11.57,5.11-17.33,2.17-7.09,4.43-14.16,6.66-21.24a6.74,6.74,0,0,0-1.86,3q-4.12,11.47-8.22,23l2.3-11.2-.51-.15-2,4.26-.69-.21,1.75-9.32-6.73,1.7,11.1-36.64c-6.33,15-11.64,30.31-16.93,45.63-2.22,6.43-5.47,12.73-6.29,19.34-.73,5.84-3,8.79-8.24,10.43,1.27,1.57,2.48,4.37,3.78,4.41,3.6.12,3.75,2.69,3.91,4.71a25.22,25.22,0,0,1-.88,8.2c-1.21,4.63-3,9.12-4.24,13.74-1.13,4.07-.45,8.37-1.62,12.54-.56,2,1.65,4.66,1.47,6.92-.29,3.55,1.79,5.23,4,7.12h-135V19.79c-10,30.13-16.35,61.32-29.88,90.44l-2-1.42.32.21c-2.82-3.08-6-6-3.75-11.44-2.89,1.42-4.8,2.81-6.92,3.32-4.7,1.13-8.23,3.12-9.26,8.34-.23,1.16-1.76,2.07-2.7,3.09l-1.17-1,3-4.33-1.54-.89-4.49,8.56c-4.17-1.78-5.22-1-5.56,4l4.19,1.76c-3.24,1.37-7.28,1.84-8.1,3.71-1.29,3-.36,6.85-.46,10.34-.14,4.93,1.45,11.27-1,14.41-2.73,3.48-2.79,6.89-4,10.35-.39,1.13-1.64,3-1.45,3.13,4.05,3.11.36,4.05-1.41,5.57a3.28,3.28,0,0,0-1.18,1.64c-.85,5-1.38,10.18-8.71,8.62a20.38,20.38,0,0,0,0-3.19c-.71-4.64-1.58-9.25-2.24-13.9-.3-2.11-.24-4.27-.34-6.4,1.64.93,3.43,2.95,5,.41.57-.92-.34-2.76-.58-4.18l1.26-3.07,3.21,3.69-1.92-11.15,6.58-1.46-4.08-5,3.67-.89c-4.56-1.62-4.56-1.62-5.62,1.74-.19.59-.24,1.49-.64,1.71-5.15,2.73-6.48,6.67-4,11.91l-1.22-.36c-.77,1.33-1.23,2.16-1.73,3-.75,1.25-3.09,2.56.17,3.62l-2.61,9.63-.71-.15-.65-3.37-18.9,61.28h-2.91c3.34,5.11.17,12.84-6,14.81l.11.12c-.42-.44-1.28-1-1.19-1.3,1.6-5.06,3.26-10.11,5-15.1.42-1.17,1.77-2.08,2-3.24,1.36-6.47.83-14.1,4.2-19.17,3.53-5.31,2.46-11.57,6.44-16.61,3.24-4.1,2.06-10.39,4.37-15.73,2.69-6.23,3.53-13.6,5.44-20.41.81-2.91,1.56-5.83,2.42-8.72,2.85-9.49,5.87-18.93,8.54-28.47,1-3.67-1.49-5.46-4.54-7.24-6.43-3.77-12.7-.8-19.1-.31l-.71,5.7-1.05.11-1.14-6.18a38.16,38.16,0,0,1-2,3.92c-4.28-1.64-3.41,2.38-4.39,4-.82,1.39-1,3.14-1.52,4.72q-10.38,32.21-20.77,64.42c-5.08,15.83-10.3,31.62-15.11,47.53-4.52,14.92-8.58,30-12.84,45h-67l-.4-2.45.23.18-.16,0,.11-.28c-.21-.91-.77-1.9-.58-2.7,1.67-6.84,3.52-13.64,5.2-20.48.64-2.58,1-5.22,1.49-7.93l2.19,1.21a19.15,19.15,0,0,0,.89-2.23c1.73-6.58,3.32-13.2,5.17-19.75a86.66,86.66,0,0,1,4.31-12.82c1.81-3.94,5.61-6.81,5.8-11.73a27.52,27.52,0,0,1,1.93-8c4.16-11.49,8.47-22.93,12.72-34.39.44-1.18.81-2.39,1.31-3.88l3.83,3.12,2.5-7.79c-.87-1.44-2.55-3-2.28-4,1.59-6.12,3.65-12.11,5.48-18.17q1.36-4.48,2.48-9c1.23-5,1.63-10.32,6.32-13.67,1.32-.94,2.72-1.77,4.23-2.74-2.22-1.77-4.48-3-4.34-3.55,1-3.85-2.26-3.76-4.13-4.79-2.51-1.38-5.16-2.49-7.87-3.78-.82,1.62-1.77,3.49-2.71,5.34-.45-3.68-.91-7.34-1.55-12.5l-4.46,11,2-.68,4,2.16-8.62,29.3-1.8-.55,3.59-11.48c.92-3,2-5.86,2.73-8.87.8-3.38-.84-4.76-3.16-4.53-2.35,5.16-4.54,9.56-6.4,14.09-6.7,16.38-9.47,34-15.85,50.51-5.7,14.76-10,30.07-14.93,45.13-2.12,6.45-4.28,12.89-6.43,19.33l-2.11-.24.44-9.08L6951,217c-3.74,1.5-5.84,4.07-5.66,9.05l5.67-1.11-1.06,8.11c-1.52,3.58-3,7.19-4.6,10.72s-3.08,7.1-7.91,4.77l-1.12,3.53-3.19-3c-.23-1.87-.14-3.86-.78-5.58-.46-1.24-1.89-2.13-2.89-3.18-1.72,2-3.89,4-1.31,6.63-3.76.12-3.48,2.09-2.42,4.74a5.88,5.88,0,0,1,.37,3.9c-.23.61-2.15.57-3.55.88Zm21-197.65,6-8.22V58.37l-3.38-.72c-1.53,4.62-3.16,9.28-4.61,14-.41,1.33-1.41,4.11,1.83,1.59-1.13,1.15,0,4.71-3.5,3.31-1.23,3.85-2.46,7.7-3.62,11.57a4.78,4.78,0,0,0,1.49.56c1.17-1.68,3.54-4.3,3.07-5-1.62-2.49-1.41-3,1.34-4.18A4.52,4.52,0,0,0,6939.89,72.35ZM7330.38,113l13.16-36.23-1.77-1.12c-1.1,1.09-2.69,2-3.21,3.29-3,7.51-6,15-8.4,22.73-1.31,4.23-1.4,8.85-2,13.29-.46,1.39-.87,2.79-1.37,4.16-1.94,5.31-7.43,9.31-5.82,16,.1.42-.69,1-1,1.57-1.13,1.74-2.26,3.5-3.39,5.24l2.08,1C7326.81,134.86,7327.43,123.41,7330.38,113Zm-275.23,21.25c-1.41,1.32-2.14,1.68-2.34,2.23-3.65,10.45-7.42,20.86-10.78,31.39-3.9,12.22-7.43,24.55-11.08,36.84a39.65,39.65,0,0,0-.76,3.95l1.52.3,7.13-11.33c.55-4.88.91-8.89,1.52-12.85.11-.69,2-1.48,1.86-1.78-1.91-5,1.23-7.93,4-11.08l3.38,2C7044.68,159.72,7053.54,148.19,7055.15,134.24Zm-101,42.54-.83-.31c-1.79,5-3.63,9.88-5.34,14.86-3.81,11.08-7.52,22.2-11.4,33.25-.35,1-1.71,1.63-2.74,2.55l1.42,2.19H6932l2.2,3-2.88.19,3.65,4.36Zm390.86-94-1.6-.62-18.45,56.1,1.47.48Zm-219.9,28.11-4.48,18.48.91.29,1.13-2.16,1.48,2.07C7127.48,123.49,7129.06,117.62,7125.07,110.9ZM7010.17,262.09c.88.71,2.71,2.56,3.39-1.79.61-3.91,1.27-7.82,2-12l5.45,1.27-4.66-2.89v-3.07A42.89,42.89,0,0,0,7010.17,262.09ZM7193.34,9.61l-2.23,14c6.27-1.92,5.81-7,6.88-10Zm-127.75,90.56-1.69-.32-6.1,20.55,1.33.37ZM6958.4,205.45l1.34.6,5.47-17-1.64-.53Zm71.76,7.58-1.28-.4-4.13,13.44C7031.1,222.61,7028.61,217.17,7030.16,213Zm-3.33-108,1.08.34,5.62-18.07-1.15-.37ZM6864.55,262.3l-1.07-.16-5.12,6.71,5.34-.42Z"/>
    <path d="M6115.86,270h-32c.55-6.1-11-14.08-15.9-10.33-2.88,2.19-5.44.39-7.65,1.92l-.62,5.35h-1.36l-.87-5.78c-.56,1.06-1.55,3.7-2,3.61-4.82-1-3.51,3.15-4.6,5.22h-65c1.33-3.54-.21-8.67,3.9-9.57l7.26-9.13c-7.24,1.27-4-2.84-4.51-4.83l-12.37-5.62-6.56,18.4V248.83c-2.26,1.58-4.21,2.21-4.75,3.45-2.54,5.81-4.68,11.8-7,17.72h-49c6-16.54,12.86-32.82,14.7-50.54-9.52,15.68-12.77,33.59-18.7,50.54h-149V0h449c-3.06,12-6.16,24-9.13,36a25.18,25.18,0,0,0-1,7.68c.28,3.88.68,7.53-4,9.47l1.31.78c-1.34,2.06-3.09,3.83-3.75,5.94-2.67,8.65-5,17.39-7.47,26.11-5.56,19.94-10.93,39.94-16.73,59.81-1.76,6-3.58,11.75-.35,18.54l5.6-17.55,1.25.34a12.37,12.37,0,0,1,0,3.2c-2.93,10.51-5.93,21-8.93,31.49-3.68,12.88-7,25.88-11.15,38.61-5,15.38-7.32,31.75-16.29,45.75-.62,1-.26,2.55-.35,3.84h-4l-3.68-10.87c-2.07.84-4.77,2.33-7.66,3C6118.17,263.16,6116,265.64,6115.86,270Zm-206-52.87-10.33,31.1c3.86.56,5-.91,4.57-5.14-.18-1.87.81-3.84,1.27-5.77,3.82,2.54,2.64-2,2.83-2.61.67-2,.42-4.35.53-6.72l4.18-1.88Zm250.91-47c-1.32,5.35-2.57,10-3.52,14.67-.17.85.89,1.94,1.38,2.93.89-.51,2.3-.84,2.57-1.58,1.56-4.27,2.85-8.64,4.21-12.9ZM5975.48,234.7l-4,10.75C5979.15,243.26,5976,238.56,5975.48,234.7Z"/>
    <path d="M5650.86,270h-371V0h445c-1.21,2.45-2.31,6.9-3.66,7-3.59.22-2.48,2.29-2.5,3.86,0,3.37.18,6.73.3,10.12l-5.16-1.47c.32,1.85,1.12,3.38.68,4.33a147.86,147.86,0,0,0-9.65,25.59c-4.39,17.07-9.31,34-13.83,51-.84,3.17-.87,6.55-1.28,9.84l-.12.08-.5,3.54a8.88,8.88,0,0,0-3.78,4.32c-2.07,6.43-3.69,13-5.67,19.46-8.56,27.89-14.79,56.44-23.81,84.2-.47,1.46-.06,3.2-.06,4.81l1.84.4,9.43-21.57c-2.51,12.8-6,25.22-9.36,37.67C5655.34,252.1,5653.15,261.06,5650.86,270Zm.81-19.18.7.17,5.31-17.23-4.95-1.85-2.9,13.05,4-3.17Z"/>
    <path d="M6239.86,0h462c-3.94,13.87-8.13,27.68-11.74,41.64-2.89,11.18-3.7,23.13-8.13,33.59-2.36,5.56-3.88,11.34-6.05,16.91-.56,1.44.21,3.39.37,5.11-6.05,2.37-2.65,8.8-5.39,12.59l4,2.41,3.94-12.73-1.66.3-1-2.6c5.42-7.89,8-17.16,12.29-25.64-2.9,12.78-6.24,25.37-9.76,37.92s-7,25-10.82,37.48c-3.56,11.71-7.39,23.33-11.21,35q-2.57,7.83-5.63,15.49c-.26.65-1.87.77-2.85,1.13l-1.4.94-2.78-15c-1.58,1.12-2.93,2.81-4.5,3.05-6.2.94-10.27,4-12.09,10.35l-1.52-4.36c-1.56,3.36-3,8.3-4,8.21-5.71-.5-5.48,4.25-7.77,7-3.52,4.21-4.12,6.85-.76,12l.57-1.22c-.76,5.31-1.37,11.05-2.55,16.68a6.25,6.25,0,0,1-3.67,3.92c-2.77.84-2.93.44-3,2.82s.43,5.07-.26,7.33c-1.7,5.51.29,13.44-8.89,14.51-.87.1-1.57,1.57-2.35,2.41V247.3l-2.55-.52c-2.67,5.52-5.42,11-7.95,16.58a49.44,49.44,0,0,0-2,6.63h-4l-.65-7.59s1.43,0,1.55-.36c1.76-5.72,3.36-11.5,5-17.27.33-1.2.35-2.49.72-3.67.85-2.68,1.84-5.32,2.75-8,3.22-9.5,6.52-19,9.59-28.54a33.38,33.38,0,0,0,1.8-9.15c.15-5.45-4-8.6-12.28-9.4-2-.19-4.12,1-6.19,1.58l.22,1.33-4.88-4.25-1.1,7.48-1.63-.13-.45-5.92-3,6.88-1.05-4.09c-1.52,3.78-2.94,6.79-4,9.94-4.21,13.11-8.29,26.26-12.42,39.39q-5,15.88-10,31.76h-18c.4-2.84-.17-6.53,1.4-8.35,3.54-4.1,4.17-8.54,4.57-13.27,1.27-1.11,2.84-3.23,2.49-3.61-3-3.31.19-6,.67-8.89.56-3.39,2.08-6.62,2.88-10,.39-1.63.07-3.43.07-5.15a64.64,64.64,0,0,0-5.85,12.95c-3.86,12.07-7.5,24.21-11.23,36.33h-43c2.44-7.67,4.78-15.38,7.37-23,.63-1.86,3-3.45,3-5.15-.05-4.24.63-7.77,4-10.69.78-.67.43-2.63.61-4l.64,0-.69-.75c1.66-5.73,3.1-11.53,5.06-17.16,1.28-3.69,3.81-7,4.87-10.7,1.21-4.27,1.42-8.82,2.06-13.25l1.53,0,2.58,4.2,4.29-12.18-4,2.09c-.31-1.12-1.17-2.5-.79-3.18,1.94-3.47-1.12-4-2.88-5-2.75-1.47-5.74-2.51-9-3.87-1.07,3.2-2.27,6.76-3.46,10.33s-2.34,7.07-3.52,10.61l-.85-.25V175.36a88.26,88.26,0,0,0-8.76,16.63c-6.29,15.42-8.36,32.14-14.8,47.58-4.11,9.85-6.89,20.27-10.26,30.43h-48c.92-1.91,2.17-3.74,2.67-5.76.78-3.13.38-6.68,1.66-9.53,2.45-5.44,6.27-10.33,4.64-16.91-.11-.45,1.38-1.29,2.79-2.54l-2.39-2.35c2.25-3.73,5.32-7.62,7.07-12,1.58-4,1.46-8.65,2.56-12.89s2.81-8.46,4.28-12.67c.61-1.75,1.34-3.46,2-5.21,1.28-3.61,2.47-7.26,3.8-10.85,1.18-3.17,2.83-6.19,3.68-9.44,1.11-4.26,1.43-8.72,2.47-13,1-4.07,2.49-8,3.76-12l-1.54-.47c-10.43,17.7-13.09,38.31-20.84,57.1l-1.34-1.75c-3,9.54-5.84,18.54-8.56,27.58-.34,1.13.61,2.85,0,3.67a27.45,27.45,0,0,0-5.18,17.48c.16,3.12-1.12,6.49-2.37,9.48-1.75,4.17-4.09,8.09-6.18,12.12h-10a29.38,29.38,0,0,1,1.48-4.73c1.14-2.28,3.1-4.25,3.8-6.63,1.38-4.72,1.87-9.71,3.22-14.44,1.56-5.46,3.82-10.72,5.44-16.17,1.5-5,2.35-10.25,3.91-15.25.57-1.83,2.37-3.28,3.71-5.05l-.93-8.51c3.5-1.86,3.5-1.86.1-8.87l-27.65,77.37,2.93,2.28h-143Zm365.66,198.2a28,28,0,0,0-1.37,3.26c-1.72,6.35-3.27,12.76-5.14,19.06-.47,1.58-2.76,2.92-2.69,4.3.15,2.83-5.85,4-1.81,7.93.75.73-.37,4.64-1.72,6s-2,.78-1.16,2.48c.65,1.37,1.25,2.76,2.39,5.3l6-21.26,5.34,2.22-3.93-9,1.22-2.76,4.27,1.36C6604.33,210.93,6612.07,204.51,6605.52,198.2Zm-188.77-30.34c5-2.47,6.35-6.31,4.38-12.37l4.51-2.52-4.21-3.79c-2.26,6.69-4.47,12.74-6.25,18.9-.39,1.36.71,3.16,1.13,4.75l1.59-.65Zm129.21,21-1.89-.86-4.54,15.58,1.12.33Zm-60-17.59c1.72-.82,3.83-1.42,3.81-1.9a49.37,49.37,0,0,0-1.32-7.18l-1.25.37Z"/>
    <path d="M7806.08,110.89c2.9,8.53-4.5,13.38-7.12,19.95-.66,1.66-3.8,3.16-.38,5.13-.76,1-1.3,2.4-2.31,2.93-2.5,1.3-3.93,2.79-2.32,6.21,1.51-.65,3-1.24,4.44-1.91,2.12-1,4.38-4.26,6.14.48.06.17,2.75-.88,3-.51.9,1.27,2,3.14,1.68,4.39-1.11,3.92,0,6.77,3.9,9.81l14-22.63c.5,7.57-6,12.5-7.27,19.33l3.16,1.38c.86,16.52-8.87,28.81-15.35,42.32-1.24,2.59-2.28,5.28-3.54,8.22l10.4-1.28.88,1.83-8.42,8.64a8.18,8.18,0,0,0,1.7,2.78c1,.88,3.24.75,3.71,1.68,1,2,1.87,4.47,1.56,6.56-.62,4.22-2.37,8.28-3.1,12.49-1,5.66-.72,11.63-2.41,17-.83,2.64.2,5.14-.44,6.69-1.65,4,.77,5.51,2.82,7.59h-131V65.5l-1.47-.31a19.68,19.68,0,0,0-1.54,3.32c-.73,2.79-1.15,5.67-1.9,8.45-3,11-7.79,21.55-8.75,33.19-.29,3.47-2.8,6.75-4.27,10.13a7.17,7.17,0,0,0-.53,1.76c-.58,3.82-.2,8.2-2,11.29a18.5,18.5,0,0,0-1.93,5.86c-.91,3.84-1.41,9.15-4,10.89-4.23,2.8-3.8,6.51-5,10.07-.57,1.68-1.34,4.19-2.58,4.6-6.09,2-3.7,8-5.94,11.69-.7,1.17-.67,2.76-1.18,4.08-2.59,6.75-5.26,13.47-7.85,20.21-.12.32.17.8.3,1.37l2.22-2.57c-.08,3.44-.52,8.36-2.35,8.95-4.62,1.49-3.62,4.67-4.1,7.63-2.76-.21-3,1.3-3.23,3.67-.23,2-1.9,3.91-3.17,6.31l1.73,1.13,2.68-2.31-2.13,7.62c-5-.87-6.31-3.41-4.79-7.59.73-2,1.13-4.15,1.87-6.16q3.42-9.18,7-18.29c1.37-3.48,3-6.87,4.24-10.39s2-7.37,3.44-10.85c1.64-3.9,1-9.09,5-10.84.33-3,.21-5.44.92-7.64,2.66-8.28,5.69-16.44,8.4-24.7,2.9-8.85,5.46-17.81,8.41-26.64,5-14.9,10.25-29.7,15.17-44.62,2.64-8,5.93-16.08,6.89-24.35,1.21-10.35.35-20.94.33-31.43,0-2.06-.25-4.12-.38-6.18l-1.45-.44-5.77,9.24-.41-4.48-1-.08-3.1,7.38c-2.18-4-4.72-1.71-5.13.38-.8,4.1-4.35,6.36-5.46,10a9,9,0,0,0-.11,3.43c.35,3.41,1.14,6.81,1.12,10.21,0,2.3-1.83,4.67-1.61,6.88.64,6.35-3.42,7.52-8.18,8.24l2.75,4.73,1.56-2.45,1.38,4.42h-3.41c.65,1.65,1.88,3.26,1.64,4.61-.21,1.17-2.09,2-3.67,3.44.69,5.16-2.48,9.57-7.28,9.08l-1.76,4.3-1.39-.19c.56-3.63,1.75-7.31,1.5-10.88s-1.94-7.08-3.15-11.13c-2.33,3.7-5.18,6.73-6.27,10.29-1.5,4.9-1.66,10.2-2.42,15.32a4.61,4.61,0,0,1-.48,1.27c-1.72,3.58-3.76,7.05-5.12,10.77C7620,103,7618.31,109,7616.4,115c-5.72-1.91-4.31-5.6-2.85-8.52,2.17-4.32,2.16-9.14,5.41-13.54s2.85-11.48,4.13-17.37c.47-2.19,1.14-4.33,1.71-6.49,1-3.73,1.9-7.47,2.94-11.18.56-2,1.26-4,2-5.89.35-.93,1.14-1.73,1.34-2.68.74-3.46.89-7.11,2-10.42,2.77-8,6.21-15.87,8.91-23.93s1.21-11.5-5.14-15h309l-21.19,63.81-1.26-.14-1.86-18c-1.94,2.19-3.37,3.2-4,4.57-2.49,5.86-4.74,11.82-7.63,17.65l.48-4.45c-4.84,2.1-5.36,6.91-7,11-.24.62-.41,1.6-.84,1.76-6.21,2.19-5.91,8.31-8.07,13a76.56,76.56,0,0,1-5.88,10.16c-.47.71-2.18.59-3.33.85-2.27-13.5,4.29-25,5.91-37.39-.62,1.6-1.27,3.19-1.84,4.81a15.43,15.43,0,0,1-2.72,5.4l2.31-9.81-.56-.21-2,4.3-.57-.1,1.35-9.55-6.91,3.13,13.32-43.65-.82-.28-27.27,78.36-.95-.22,3.15-11-.69-.3-5,11.39-.89-.32,1.4-6.54-.4-.17-5,9.91-1.4-.6,8.54-28.92-.8-.24L7850.9,99.08l-2.12-.6,2.92-12.56-.43-.16-5.6,12.38-.87-.35c2.35-7.34,4.58-14.72,7.09-22a16.58,16.58,0,0,0-1.59-14.64l-4.62,12.2-1.23.12c-.16-1.34-.78-2.83-.41-4,4.43-14.19,9-28.33,13.54-42.49q3.21-10,6.4-20.08l-1.24-.42-20.54,60.94-1.14-.38,16-49.66c-6.58,6.1-9.76,13.87-12.44,22-5.88,17.9-12.05,35.71-18.93,53.51l.93-20.09-1.53-1c-1.74,2.27-4,4.31-5.12,6.85-3,6.86-5.53,13.94-8.24,20.94l1.49-8.73c-1.68,1.85-3.53,3.43-4.79,5.38-2.43,3.75-4.56,7.69-6.74,11.59-1.29,2.3-2.35,4.73-3.64,7-2.66,4.75-5,9.71-8.18,14.12-6.48,9.06-13.38,17.81-20.11,26.69l1.13,1c2.21-2.32,4.69-4.44,6.6-7C7787.11,136.82,7796.57,123.84,7806.08,110.89Zm-165-61.28-4.89,1.87c.45,4.72,1.57,5.09,9.65,2.49l-4.9-4.25h4.61c-.35-1.49,2.83-5.32-4.13-6l8.43-7.57-5-4.12C7643.41,38.06,7634.48,42.18,7641.07,49.6Zm146.69,72.34-.75-.63c-1.68,1.71-3.63,3.23-5,5.17-7.33,10.42-14.66,20.85-21.65,31.5-2,3-2.77,6.74-4.11,10.15l.89.17ZM7646,29.48c5.62-.72,5.6-4.78,6.73-8.05.37-1.08,2.81-1.84.42-3.05-.47-.24-1.71,1-3,1.84l2.52-9.1-1.88-.5Z"/>
    <path d="M8159.86,270V108.54l-1.4-.25-4.63,12c-5-7.59-5.52-10.1-.43-20.7,5-10.44,6.7-21.17,6.53-32.57-.28-18.77-.08-37.55-.08-56.72l-3.14,2.77L8159.86,0h185c-21.4,31.5-42.88,62.95-64.16,94.53-14.56,21.6-28.85,43.39-43.25,65.11-2.09,3.15-4.32,6.23-6.12,9.55-.88,1.62-.9,3.69-1.46,6.21l46.51-68.21,1.61.84c-5,9.27-9.52,18.87-15.18,27.73-5.82,9.11-12.77,17.5-19.22,26.21l1.8,1.36,34-45.23c.63,8.83-4.58,15.74-9.39,22.83,2.06,1.53,4,2.92,0,4.4-2.49.93-4.37,2.44-2.58,6.26,5.33-3.67,10.75-4.16,15.88.49-.15,3.49-2.87,8.17,3.61,11.42l13.41-22,1.08.38-8.11,18.46,3.42,1.48c0,11.32-3.55,21.42-9.61,30.88-2.94,4.59-5.12,9.68-7.51,14.61a34.15,34.15,0,0,0-1.56,5l9.94-1.28.88,2-8.76,9c1.44,1,4.16,2.14,5.9,4.15,3.15,3.64,1.6,7.95.58,12-1.69,6.72-3.73,13.38-4.94,20.18-.67,3.74,0,7.72.14,11.6Z"/>
    <path d="M8639.86,270V0h181c-3.93,6.3-7.65,12.74-11.82,18.88-19.62,28.89-39.48,57.62-59,86.56-14.78,21.88-29.23,44-43.82,66-2,3-4.13,5.92-5.82,9.08-.81,1.52-.74,3.52-1.18,5.88l46.6-68.6.86.13a44,44,0,0,1-1.8,5.77c-7.42,15.94-17.27,30.33-28.16,44.06a10.43,10.43,0,0,0-2.24,5,438.39,438.39,0,0,0,33.82-43.85l1.35.54-9.18,22.92h.27c-.4,1.3-.52,2.81-1.27,3.85-1.16,1.61-2.77,2.9-3.69,5.42,6.32-3.93,12.7-.16,18.77-1.4-3.88,7-3.66,10.29,1.67,14.36l13.78-22.7c.46,7.71-5.83,12.61-7.28,19.52l3.13,1.31c.27.44.44.59.43.73-.29,3.4.23,7.17-1.06,10.15-4.79,11-10.22,21.77-15.31,32.67-1.06,2.27-1.71,4.73-2.51,7l10.09-1.13.81,2.08-9,8.72c1.42,1,4.15,2.12,5.84,4.16a8.62,8.62,0,0,1,1.63,6.32c-1.06,5.66-2.9,11.17-4.23,16.79-.76,3.21-1.12,6.52-1.67,9.78Z"/>
    <path d="M9119.86,270V0h162L9281,6.76l4.75,2.29-4.76,9,1,.55L9293.86,0h2c-10.16,15.59-20.1,31.33-30.52,46.73-17.24,25.49-34.93,50.67-52.18,76.16-14.25,21-28.13,42.33-42.17,63.52-2,3-4.14,6-5.84,9.13-.8,1.51-.71,3.49-1.08,5.59l46.39-68c-6.77,20.84-19.84,37.85-33,54.82l1.94,1.37,34-45.21c.67,8.82-4.68,15.72-9.42,23,2.64,1.51,3.62,2.71,0,4.32s-3.38,1.89-2.44,6.23c5.36-3.82,10.78-4.29,15.86.46-.32,3.45-2.68,7.87,3.4,11.52l13.68-22.16.87.25c-1.18,3-2.25,6-3.56,9-1.41,3.15-3.05,6.21-4.76,9.63l3.81,1.53a3.9,3.9,0,0,1,.22,1,63.86,63.86,0,0,1-5.72,22.65c-3.17,6.56-7,12.78-10.45,19.24a80.18,80.18,0,0,0-3.1,7.65l10.31-1.27.83,2-8.76,8.8c1.63,1.19,4.6,2.47,6.23,4.73,2.7,3.75,1.3,8.06,0,12.13-.57,1.72-1,3.48-1.54,5.22Z"/>
    <path d="M9599.86,270V0h151c-3,4.62-9.65,7-8.23,14.19l4.67-3.36-8,18.86,4.83-5.09c1.56,2.45,1.56,2.45-2.57,14.07,2.49-3.52,5-7.05,7.49-10.56a49.14,49.14,0,0,1,8.27-9.62c-5.07,7.69-10,15.45-15.22,23.07-22.24,32.75-44.63,65.39-66.77,98.2-14.68,21.76-29,43.74-43.52,65.63a97.77,97.77,0,0,0-5.55,8.66c-1,1.9-1.2,4.21-1.85,6.72l41.84-61.16,1.82,1.11c-4.11,8.33-7.3,17-13.39,24.46a201.47,201.47,0,0,0-16.14,23.12c12.89-13.8,23.91-29.07,34.86-44.54,2.86,7.92-3.57,12.55-6.06,18.5-.8,1.92-4.29,3.55-.68,6-.72.91-1.27,2.26-2.21,2.64-2.94,1.19-4.2,2.8-2.44,6.34,1.65-.77,3.12-1.45,4.58-2.14,2-.94,4.13-4,5.74.46.1.28,1.18.37,1.76.28,3-.5,4.11.77,3.2,3.61-1.27,3.94-.42,7.08,4,9.85l14-23c.07,7.93-5.86,12.9-7.42,19.38l1.61,0a39.28,39.28,0,0,1,1,5.83c.45,15-9.39,26-15,38.58-1.16,2.59-2.11,5.28-3.12,7.82l10.12-1.21,1,1.82-8.52,8.65.89,2.86Z"/>
    <path d="M10079.86,270V0h146c-8.2,9.81-16.54,19.51-24.49,29.52-1.82,2.29-2.31,5.65-3.83,9.57l5.32-3.73-6.46,16.76.73.5,3.15-2.39,1.46.51L10198,62.54,10211.11,44l.89.49c-.63,1.13-1.18,2.31-1.9,3.37q-37.35,55.43-74.73,110.85-24,35.74-47.85,71.62c-6.58,9.88-6.51,9.92-6.08,13.43l45.23-66.52.93.07a26.45,26.45,0,0,1-1.3,5,213.58,213.58,0,0,1-28.26,43.93,17.87,17.87,0,0,0-1.88,2.9,3.67,3.67,0,0,0-.12,1.41l1.22.87,32.81-43.81c-.54,9.46-.54,9.46-9,22.55,1.92,2,3.71,3.8-1,5-2.17.57-4.22,2.8-2.22,4.86,4.42,2.09,7.31-6.91,11.45-.18l7.43-1.77c-1.65,2.7-4.15,5-4.22,7.4s2.22,5,4.26,9l14.61-23.89,1.18.49-8.66,19,4.3,1.35c-1.14,4.84-1.74,9.91-3.55,14.5-3.21,8.15-7.16,16-10.8,24Zm51-117-1.08-.71L10118.63,169l1,.63Z"/>
    <path d="M10698.86,0c-9.9,12.6-19.85,25.17-29.68,37.83-4.35,5.6-7.9,12-12.89,16.86-3.54,3.48-5.58,6.94-6.17,12l5.18-4-8,19.16,5.29-5.68c3.61,6.51-3.26,9.59-3.37,15l15.18-21.36,1.25.86-104.88,155.21-.91-.18V0Z"/>
    <path d="M7615.86,0c-.82,1.37.59,5.17-3.5,3.26a16.29,16.29,0,0,0-2.27,4.1c-6.3,19.38-12.49,38.79-18.76,58.18-5.56,17.2-11.3,34.35-16.71,51.6-2.15,6.85-3.49,13.94-5.4,20.86-2.1,7.62-3.86,15.42-6.89,22.67-1.65,4-1.73,8.2-3.73,12a179.26,179.26,0,0,0-8.51,18.28c-3,7.71-5.36,15.66-8.1,23.47-.33.93-1.63,1.54-1.92,2.47-1.19,3.79-1.94,7.73-3.26,11.48-4.9,13.9-10,27.74-15,41.61h-1l.24-2.4-2.22.13c1.58-8.54,2.54-16.8,4.75-24.72,2-7.3,5.4-14.24,8.19-21.32,1-2.45,3.15-5.12,2.7-7.25-.49-2.33-3.39-4.14-5.24-6.18l-4.44,3.42-1.38-.71c1-4.06,2-8.12,3-12.2,1.73-4.93,2.25-11,5.54-14.44,3.86-4,.45-6.87,1.2-10.14-3.47,3.77-8.58,6.69-6.6,12-1,1.91-2.49,3.39-2.34,4.69.29,2.71,1.44,5.33,2.24,8l-3.95-3.37-14,35.68L7507.1,230c-3.8.44-2.38,5.6-5.5,7.88l-5-7.52c4-2.45-.55-2.83-1-4.34-1,1.45-1.2,3.26-2.18,4.33-1.33,1.45-3.27,2.33-5,3.45-.8-1.61-2.4-3.32-2.23-4.82.39-3.36,1.66-6.61,2.59-9.9.41-1.45.86-2.88,1.29-4.33l-.7-.2-5.85,11.12-1.37-.52-.56-4.29-4,9.12-1-.38,3.28-10.59-.75-.26-5.6,13.41a7.92,7.92,0,0,1,.33-4.55c1.87-5.15,3.39-10.16.93-15.75-.51-1.15,1.65-4.05,3.22-5.41,2.53-2.18,5.33-3.85,4.24-7.89a6.36,6.36,0,0,1-.22-3.3c.84-2.7,2.3-5.23,2.93-8,1.28-5.57.73-12.11,3.51-16.67,6.58-10.78,7.43-22.76,10.11-34.7l2.15,1.08c.57-1.89,1.14-3.66,1.64-5.46,1.27-4.66,2.4-9.36,3.8-14,1.64-5.45,3.29-10.92,5.34-16.22,1.24-3.2,3.92-5.94,4.74-9.19a85.14,85.14,0,0,1,4.83-14.37c4.19-9.37,6.91-19.39,10.47-29.06.69-1.88,2.58-3.29,3.69-5.07a12.87,12.87,0,0,0,2-4.59c.61-4,.13-8.34,1.41-12.1,3-8.91,6.73-17.6,8.16-27h43l-6.27,19.7,1.55.49L7590.86,0Zm-64.62,126.1c-2.27,4.58-4.84,9.09-3.25,14.62.41-.17.55-.21.68-.28,4-2.14.86-4.76.38-7.11-.61-3,4.15-4,2.38-7.29,4.18-3.56,4.08-8.36,4.15-13.1l-1.43-.39Zm4.64-18.34,1.65.28c.42-.9.83-1.81,1.26-2.7,2-4.13,5.12-8.12,5.63-12.41.48-4.08.84-7.38,3.72-9.06,0-2.81-.46-5,.13-6.89s2.74-3.42,3.31-5.36c1-3.51,1.16-7.29,2.12-10.83,1.85-6.87,4.09-13.63,6-20.49a30,30,0,0,0,.48-5.7,3.68,3.68,0,0,0-1.93,2.44c-3.68,9.59-7.54,19.1-10.33,29-3.46,12.33-7.36,24.53-11,36.8C7556.4,104.45,7556.21,106.12,7555.89,107.76Zm-18.07,57.11c-.53-4.75,6.22-8.86.63-15-.46,4-.33,7-1.27,9.66C7536.3,162,7535.73,163.83,7537.82,164.87Zm-3.21,25.3c7-4.85,7.14-5.07,5.61-9.8Zm.83,10.57c-5.76.22-6.12,1.05-3.15,6.86Z"/>
    <path d="M11042.92,201.86l-3.05,2.33V0h132q-15.82,20.34-31.62,40.69c-6.78,8.79-13.37,17.73-20.18,26.5-5.4,7-10.56,14.18-16.68,20.46-3.06,3.14-5.37,5.86-5.44,10.78l4.12-2.39-5.54,14.46,4.94,2.48-4.77,10.42c-6.83,9.8-13.73,19.56-20.48,29.42C11065.06,169.13,11054,185.51,11042.92,201.86Z"/>
    <path d="M11520.91,187.87a21,21,0,0,1-1-4.51q-.08-91.68,0-183.36h126c-11.5,14-23.23,27.81-34.46,42-14.45,18.26-28.45,36.87-42.74,55.26-7,9-13.85,18.34-21.66,26.68-3.35,3.57-5.6,6.78-6.06,12.06l3.63-3.07.71.38-7.07,17.18,4.65-2.49,1.29.9a31.51,31.51,0,0,1-1.22,4.53c-1.07,2.49-2.38,4.88-3.58,7.3Z"/>
    <path d="M7437.95,195a35.3,35.3,0,0,0-2.95,4c-.86,1.58-.9,3.27-2.21,5-2.61,3.43-4,7.86-5.56,12-5,13.47-9.9,27-14.91,40.5a7.94,7.94,0,0,1-2.12,2.62c-1.65,1.58-3.39,3.06-5.5,4.94l-5.43-11.35-7.82,5.44c.08.15-.36-.33-.26-.51,3.63-6.5.26-15,6.1-21,.58-.59-.36-2.48-.17-3.69a13.17,13.17,0,0,1,1.42-3.76c.76-1.51,2.58-3.06,2.39-4.37-.78-5.37,2.92-9.08,4.35-13.59,1.07-3.35,2-6.74,3-10.12.21-.73.1-1.69.54-2.2,5.07-5.87,6.66-13,7.39-20.39,0-.33,0-.9.12-1,7.35-2.79,4.31-10.5,7-15.58,1.52-2.93,2.33-7.25,3-11.09.41-2.42,2.09-4.64,3.21-6.94.42-.87,1.2-1.7,1.27-2.58.37-4.87,2.85-9.14,4-13.63,3-11.83,8.79-22.56,11.91-34.26.8-3,1.16-6.13,2.12-9.07,1-3.21,3-6.19,3.69-9.44.52-2.29,3.75-4.59.69-7.31-.12-.11.21-1,.53-1.31,3.66-3.77,2.7-8.94,4.17-13.37.41-1.23,1.73-2.16,2.53-3.1l-2.54-6.48c1.48,1.17,2.61,2,3.18-.93.89-4.5,4.5-7.92,4.68-13,.14-3.77,2-7.51,3.28-11.19.71-2,2.11-3.83,2.73-5.88,1.23-4.12,2.14-8.34,3.19-12.51h49c-3.75,11.72-7.62,23.4-11.17,35.18-1.12,3.7-.9,7.82-2.15,11.45-2.81,8.16-6.41,16-9.24,24.2-5.15,14.78-9.93,29.69-15,44.49-.45,1.3-2.08,2.2-3.16,3.29l-.87-.89,2-8.53-1.4-.42-13.06,39h-1l-1-8.07h-.93l-1.21,8.26-.93-.7c-1.19,1.45-2.84,2.73-3.43,4.4-.46,1.29.4,3.05-.39,4.74a43,43,0,0,1,2.64,6.38c.43,1.76.09,3.71.09,7.13-4.74-5-7.74-.77-11.24-.13a1.35,1.35,0,0,0,0-.7c-1.75-4.85-.42-9.45,1.46-13.86.85-2,3-3.49,3.63-5.5.81-2.5.7-5.3.95-8,0-.28-.22-.58-.35-.92L7454,140l-3.79,15.24-1.42-.07,3.13,3.71-4.69-1.44,1.92,2.71c-1.18,1.27-2.58,2.11-2.93,3.26a73.11,73.11,0,0,1-3.37,9.44,98.24,98.24,0,0,0-5.29,15.45c-.57,2.11.12,4.55.23,6.84Zm39.94-112-1-.38c-.88,2.2-1.85,4.38-2.62,6.62-3.95,11.57-7.8,23.16-11.83,34.7-.3.86-1.73,1.33-2.8,2.11l1.77,2.34-2.87.54,1.63,3-3.49-.88,4.2,4.8Zm13.48,5.3-1.71-.57-5.55,17.56,1.44.49Z"/>
    <path d="M12118.86,0c-23,27.77-46.12,55.36-68.77,83.38-15,18.54-29.21,37.7-43.8,56.57-1.8,2.32-3.69,4.57-6.43,8V0h71l-25.44,30.41,1.28,1.06L12072.86,0h41l-19.52,22.75,1.56,1.3,19-24.06Zm-14.92,6.15-1-.84-13.4,16,1.19,1Zm-31.23,12.73-1.32-1-9,11.14,1,.79Z"/>
    <path d="M8106.86,0c-1.28,4.81-2.65,9.59-3.79,14.43-.73,3.1-.74,6.4-1.73,9.39-2.78,8.39-6,16.62-8.83,25-1.32,4-1.26,8.52-3.17,12.1a203,203,0,0,0-13.42,31.66c-1.58,4.78-4,9.3-5.64,14.06-1,2.7-1.19,5.66-1.83,8.48-1.08,4.8-1.76,9.76-3.45,14.35a176.42,176.42,0,0,1-8,17.33c-.57,1.15-2.12,1.8-3.61,3a23,23,0,0,1,.58-16.65c2.62-6.7,4.69-13.6,7-20.4,1.17-3.37,3-6.62,3.48-10.07.33-2.57-1.1-5.37-1.91-8.71l-6.05,3.85c-1.77-11.48,3.22-20.06,8.62-28.76,1.36-2.18.2-5.93.2-9.41-2.32,3-4,5.13-5.74,7.34-.49.64-1.23,1.37-1.24,2.07-.08,5.05-3.43,8.95-4.7,13.6a163.26,163.26,0,0,1-5.67,15.83c-2,5.09-4,10.17-6.29,15.12-.57,1.22-2.49,1.75-3.4,2.9-1.53,2-2.75,4.17-4.32,6.63l-5.22-4-2.85,3.51,2.85-10.57-1.1-.49-7.38,8.59c-6-6.9,1.6-13.14,1.1-20l-7.36,14-2-3.73-3.94,9.14-.83-.26,4.63-14.94-.68-.21-4.66,11.38-1-.26a23.24,23.24,0,0,0,1.33-4.58c.25-3,.66-6.11.11-9-.81-4.29-1-7.51,3.81-9.85,1.9-.92,3.29-4.15,3.73-6.55,1-5.44.72-11.15,2-16.51,1.19-5.1,3.85-9.84,5.53-14.85,2.38-7.07,4.56-14.21,6.6-21.38a76.92,76.92,0,0,0,1.49-8.59c.82-.37,2.15-.55,2.5-1.23.89-1.78,1.92-3.78,1.88-5.67-.15-6.15,4.17-11.07,4.33-17.07h47c-2.43,4.83-1.51,11.24-5.51,14.19l-1,11.48,1,0L8087.86,0Zm-34.79,33.21c-.87,1.32-1.94,2.33-1.74,2.76,1,2.12-.45,3.08-1.43,4.6-2.63,4.08-2.34,8.11.75,10.67C8071.57,45.48,8074.49,40.23,8072.07,33.21Zm-4.44,41.72c3.54,1.31,6-2.48,4.93-9Z"/>
    <path d="M12979.3,95.79q-7.42,7.49-14.83,15c-1.19,1.21-2.29,2.52-3.43,3.78l-1.55-1.17,9.29-12.44-.32-.27-7.32,7.84L12960,108q-.06-54-.11-108h88l1.73,1.78,1.27-1.78h4c-1,2.41-1.67,5-3,7.2-2.12,3.47-4.68,6.68-7,10q-15.62,18.82-31.24,37.63Q12996.47,75.34,12979.3,95.79Z"/>
    <path d="M12590.86,0c-5.44,6.82-10.77,13.75-16.35,20.46q-35,42.13-70.17,84.15c-8,9.55-15.81,19.18-24.48,29.71V125.7c0-15.3,0-30.61,0-45.91a14.89,14.89,0,0,1,1-3.74l-.14.05c5.69-6.19,11.58-12.22,17-18.62,7.7-9,15.08-18.34,22.6-27.53l24.43-30Zm-41.81,46.79-1-.87-19.45,22.35,1.39,1.21Zm-25.41,20.38,1.14,1.08,14.14-17.2-1-.8Zm-16.25-3.11-1.22-1-9.63,12.07,1,.78Z"/>
    <path d="M7970,116.76V127l-1.41.59c-2.16-3.08-4.18-6.67-9-1.84-.08-4.72-3.26-8.12,1.34-12,1.87-1.57,1.46-5.64,2.61-8.36s3.45-5.07,4.35-7.86c1.2-3.71,1.86-7.74-1.16-11.34-1.16,2-1.46,4-3.12,5.77-2.41,2.63-3.36,6.68-4.68,10.22-5,13.48-9.84,27-15,40.45-.51,1.34-2.7,2-5,3.63l-2,5.47-6-13.28-8.32,6.62a62.27,62.27,0,0,0,2.13-6.7c1.05-5.54-.22-11.55,4.48-16.32,1.29-1.31.47-4.53,1.11-6.72.52-1.76,2.14-3.2,2.65-5,1.3-4.52,1.79-9.32,3.45-13.68,2.56-6.75,6.06-13.14,8.7-19.87,1.5-3.82,2.07-8,3.05-12,.08-.32-.06-.77.12-1,7.47-8.44,7-19.48,9.85-29.45,1.64-5.72,4.75-11,7.13-16.52a12.51,12.51,0,0,0,1.42-4.62A18.41,18.41,0,0,1,7971.86,0h24c1,7.73-3.74,13.74-6.06,20.47l-2.93,2.94v5.28c-3,.91-4.3,3.94-3.43,8.33.28,1.39-.52,3-.82,4.49l-1.23-.18,1.16,1.25a38,38,0,0,0-3.59,4.81c-1.12,2.2-1.44,4.67-2.53,7-3,6.41-5,13.28-7.09,20.07-.62,2-1.57,5.07,2.93,5.38.08-4.88,6.55-7.2,4.57-12.84-.06-.18.38-.5.5-.78,1.23-2.83,2.27-5.77,3.76-8.46.64-1.16,2.19-1.83,3.32-2.72l0,0c2.81,4.52,4.63,5.31,8.33,3.88-.61,4.31-3.52,5.91-9,4.68-1.5,3.07-2,5.46-.28,9.35,1.43,3.22,5.22,8.91-1.49,12.37-.94.49-.62,3.42-.75,4.29-3.1,2.44-6.39,4.23-8.44,7-1.18,1.57-2.93,5,1.14,6.85.83.37,1.58,2.8,1.16,3.75-1.48,3.36-3.47,6.5-5.28,9.72-.09-.81-.18-1.63-.33-3.09l-5.16,3.66,3.18,3.11Z"/>
    <path d="M12544.86,0l-24.43,30c-1.2.78-2.67,1.33-3.57,2.37-8.72,10.11-17.42,20.25-26,30.51-3.56,4.26-6.74,8.84-10.09,13.28l.14-.05a26.66,26.66,0,0,1-1-5.15c-.06-20.56-.22-41.13.22-61.69.07-3.1,3.08-6.14,4.73-9.21Z"/>
    <path d="M7963.86,0c-2.71,8.57-5.22,17.22-8.2,25.7-2.78,7.94-5.87,15.79-9.26,23.49-.79,1.8-3.33,2.83-5.07,4.22l1.07,1.43a4.69,4.69,0,0,0,1.17-.86,5.39,5.39,0,0,1,1.15-1.57c-2.3,8.53-4.16,17.22-7,25.56-3,8.63-7.12,16.84-10.37,25.38-3.13,8.25-5.76,16.68-8.61,25l-1.89-.65,15.28-42.45-.94-.34-18.44,49.69-1.65-.55c1.53-4.21,3-8.46,4.61-12.63,3.25-8.36,6.75-16.65,4.69-24.83l7.47-6.12-.67-1.33-4.61-.52,2.26-6.9,2.36,2.47c5.44-5.58,5.48-6.08,1.25-10.18l5.24-22.33,1.81,3.22c2.45-9.31,4.53-17.32,6.69-25.31.25-.94,1.17-1.69,1.49-2.62,3.1-9,6.14-18,9.2-27Z"/>
    <path d="M10559.86,270c0-2.66.19-5.34,0-8-.9-10.86.63-20.65,8.89-29,4.95-5,8.49-11.36,12.75-17.23,2.87,8-3.83,12.67-6.31,18.73-.73,1.78-4,3.36-.52,5.55-.82,1-1.47,2.22-2.5,2.84-2.78,1.68-3.13,2.29-2.1,6.24,1.68-.8,3.3-1.5,4.86-2.32,1.92-1,3.88-3.38,5.38.5.13.33,1.18.61,1.66.46,4.06-1.24,4,1.73,3.34,3.84-1.21,4,0,6.74,3.88,9.69l14-22.62c.46,7.58-6,12.53-7.29,19.35l3,1.3V270Z"/>
    <path d="M7114.86,270c-2.91-6.22.18-12.11,2.72-16.92,4.62-8.72,5.23-18.35,8.36-27.33,2.86-8.22,5.57-16.5,8.3-24.76,5.73-17.32,11.4-34.66,17.18-52,1-2.88,2.39-5.61,3.74-8.73,4.51,2.73,2.29,6.72,2.06,9.83a29.8,29.8,0,0,1-2.85,10.48,43.55,43.55,0,0,0-4,13c-.72,5-3,9.79-4.38,14.75-1.93,7.19-3.42,14.5-5.46,21.65-1.05,3.69-3.15,7.07-4.29,10.74-.91,2.94-.75,6.22-1.63,9.17-2.13,7.19-4.59,14.28-6.92,21.4-4.8-1.12-4.8-1.12-4,3.61.53,3.34-2.81,8.47-6,9.84-.8.34-1.06,2-.92,3.57l2.55-1.66-.43,3.3Z"/>
    <path d="M7986.88,23.41l2.93-2.94,1.92,3.92L7999.86,0h10l-6.33,6.67c5.57.54,6.82-3.23,8.35-6.67-1,4.31-1.79,8.71-3.13,12.92a228.12,228.12,0,0,1-8.38,22.4V32.64c-2.12,1.21-4.35,2.3-6.36,3.72a3.88,3.88,0,0,0-1,2.67c-.14,2.21,0,4.43,0,7.65l3.78,2.41-3,7.61-2.52-3.48-6.79,1.87,0,0a53.32,53.32,0,0,1,.24-6.72,47.27,47.27,0,0,1,2.21-9.88c1.87-4.8,5.48-9.35,0-14.09C7986.74,24.22,7986.88,23.74,7986.88,23.41Z"/>
    <path d="M12979.3,95.79q17.14-20.48,34.27-41,15.66-18.78,31.24-37.63L13059.86,0h2c-6.65,8.44-13.14,17-20,25.29q-35,42.22-70.17,84.27a87.81,87.81,0,0,1-12.17,12.53,27.44,27.44,0,0,1,2.39-4.57C12967.65,110.22,12973.49,103,12979.3,95.79Z"/>
    <path d="M8487.86,0l-7.3,18.49-2.31-2.42-3.33,8-6.57-12.25-6.53,4.91c.33-5.31.69-11,1-16.69Z"/>
    <path d="M6620.86,270l16.07-47.12,1.79,11.39L6627.86,270Z"/>
    <path d="M8602.86,0c-.51,4.2-4.77,11.11-6.18,11.16-.29,9.21-5.4,16.68-7.85,25l-1.46-.22c.19-2.82.29-5.65.61-8.46.47-4.19,1-8.4,1.71-12.55.91-5,2.1-9.93,3.17-14.9Z"/>
    <path d="M6933.11,249l3.19,3c-.23,2.31-1.48,6-.53,6.7,4.94,3.62,2.2,7.42,1.1,11.28h-12A31,31,0,0,1,6933.11,249Z"/>
    <path d="M6938.86,270c1.24-3.35,2.58-6.66,3.7-10.05q4-12.16,7.78-24.4c.23-.74-.35-1.73-.56-2.6,3.32.77,4.68,2.21,3.33,6-3.64,10.27-6.87,20.69-10.25,31.06Z"/>
    <path d="M8457.86,0l-2,10.22-1.57-2.65-2.65,3.78-.65-.25L8452.81,4l-.64-.2-4,9.36L8449.86,0Z"/>
    <path d="M4737.29,29c3.16-8.37,6.37-16.73,9.44-25.14.42-1.16.11-2.58.14-3.88h3q-4.41,13.08-8.81,26.17C4740.44,28,4740.33,30.42,4737.29,29Z"/>
    <path d="M6457.86,270l4.78-14.48c2.43,6.07-1.4,10.06-1.78,14.48Z"/>
    <path d="M8026.41,2.11,8024.86,0h3l-1.6,2.1Z"/>
    <path d="M4716.06,111.33l.14-.13Z"/>
    <path d="M4716.17,108.17l.3.25-.15.36A2.62,2.62,0,0,0,4716.17,108.17Z"/>
    <path d="M13442.21,105.85l-2.33.64c0-15.14,0-30.16,0-45.18a5.24,5.24,0,0,1,1.08-3.13c7.92-9.36,15.93-18.64,24.72-28.87l-.45,4.2,7.75.63-1.6,6.11,7.25-4.1.78.88-1.44,4.27,4.93-3.37.67.54L13474,56.24l.43.6,6.08-4.48c1.55,6.53-3.9,9.68-6.58,14.12-1,1.66-2.16,3.24-3.25,4.85Z"/>
    <path d="M11042.92,201.86c11.09-16.35,22.15-32.73,33.3-49,6.74-9.86,13.65-19.62,20.48-29.42l15.32-21,1.09.76L11041,210.24l-1.39-.7Z"/>
    <path d="M13442.2,105.85l28.51-34.51,15.58-17.18c1.31-1.44,2.63-2.87,3.94-4.3l1,.83-50.39,61.78-1.28-.79Z"/>
    <path d="M13445.13,17.16l2.89,8,5.81-2.1-13.23,17C13441.48,32.63,13436.35,24.39,13445.13,17.16Z"/>
    <path d="M11520.91,187.87l18.44-27.13,13.89-18.67.92.62-33.48,50.72-1-.45Z"/>
    <path d="M10560.45,239.86c-2.43-6.49,1.85-10.41,4.64-14.69,2.92-4.48,6.29-8.66,9.46-13C10576.31,215.29,10570,227.66,10560.45,239.86Z"/>
    <path d="M13440,56.82v-8l13.16-9.41Z"/>
    <path d="M11544.16,148.91l-1.29-.9,1.59-2.42Z"/>
    <path d="M7168,108.81c2,3.92,2.62,7.64-.43,11.54-1.08,1.38-1,3.66-1.45,5.53l-1.37.11-.55-8.33-2.76,7.13c-1.64-5.43,2.11-14,6.88-15.77Z"/>
    <path d="M7079.6,237l2.53,4.94-8.25-.83,1.36-5.19,4.46,1.21Z"/>
    <path d="M6648.25,198.55c2.18,2,2.2,4,.57,6.56s-2.46,5.49-3.79,8.58c-2.77-2.87.66-6.27.22-10.52l-2.72,6.41-1.56-.51c1.19-3.35,2.35-6.71,3.65-10a13.39,13.39,0,0,1,2.21.45Z"/>
    <path d="M7995.44,69.73l-23.57,65.46c-1.31-6.21,18.84-64.09,22.16-66.1Z"/>
    <path d="M8012.85,18.44l-16.34,48.7c-4-4.31-1.16-7.76-.14-11.06,1.61-5.19,3.68-10.23,5.46-15.36,2.21-6.38,4.23-12.82,6.57-19.15.55-1.48,2.05-2.59,3.12-3.88Z"/>
    <path d="M8139.66,24.66l1.28,1.63c-3,.23-5.9,1.34-7.42.35-2.22-1.46-.92-3.43.89-5.58,2.38-2.85,3.51-6.77,5.06-10.28a43.7,43.7,0,0,0,1.47-4.6L8146,8.72Z"/>
    <path d="M8026.41,2.11h-.15a70.25,70.25,0,0,1,.1,8c-.14,1.55-1.12,3-1.88,4.92l-1.19-2-2.11,3.3C8022.73,11.48,8021.63,5.66,8026.41,2.11Z"/>
    <path d="M7599.28,140.9l10.2-20c6.61,2.11,3,6.76,1.87,10.29a23.62,23.62,0,0,1-5.1,8.79C7605.13,141.16,7602.16,140.59,7599.28,140.9Z"/>
    <path d="M7628,104.45c8.21,4,9.94,9.74,4.5,16.31l2.91-7.1-9.08.46Z"/>
    <path d="M7638,85.14l-.42,8.83-3.14,1.57c-.55-2.25-1.38-4.33-1.46-6.43,0-1.36,1-2.75,1.65-4.27Z"/>
    <path d="M7624.81,225.08l2-9.11,2.66-4.48C7630.14,216.88,7627.56,221,7624.81,225.08Z"/>
    <path d="M7599.18,149.06l4.11,3.31-5.12,4.84-1.29-1.15Z"/>
    <path d="M7103.73,204.24c1.75,1.74,3.88,3.25,5.05,5.31.49.87-.65,3.58-1.76,4.21s-4.54.41-4.73-.17c-.82-2.51-.83-5.29-1.14-8Z"/>
    <path d="M7111.59,182.39l1.83,12.89c-1.94-.33-4.73,0-5.33-1.05C7105.66,190.14,7107.62,186.56,7111.59,182.39Z"/>
    <path d="M7078,253.84l-6,3.9-1.06-.88,2.14-7.07Z"/>
    <path d="M7075.3,206.74l-5.45,16.69-1-.32,5.17-16.79Z"/>
    <path d="M5260,262.33l6.46-7.9c1.39,1.59,4.26,3.9,3.9,4.64-1.3,2.69-3.69,4.84-5.67,7.2Z"/>
    <path d="M7452.43,169a1.35,1.35,0,0,1,0,.7l8.25,5.23c0,2.3-3.2,4-9.8,2.25.18,2.51.29,4.64.49,6.76a26.75,26.75,0,0,0,2.49,10.08c.15.29-3.48,2.53-5.35,3.87q-.75,2.54-1.53,5.07l-10.13,14.21,4,1.8,2.12-3.36,2.15,2.56-8.28,15.6,1.27-5.25-.84-.88-4.23,3.85a20.65,20.65,0,0,0,3.17,2.44c.79.4,1.87.23,3.58.39l-2.61,7.27-4.79-5.13-4.16,3-2.46-11.37,4.15-.25-1.56-2.22c1.29-2.36,2.31-4.29,3.39-6.2,1.44-2.55,3.11-5,4.33-7.64a22.61,22.61,0,0,0,2.22-7.1c.3-3.2-.14-6.47-.27-9.71l-.11.1c5.56-6.49,10.57-13.33,11-22.27C7448.93,170.05,7449.64,168.79,7452.43,169Z"/>
    <path d="M7442.71,237.93c.93-4.32,1.55-8.73,2.88-12.92,2-6.43,4.63-12.68,6.88-19,2.4-6.78,4.45-13.69,7.17-20.33.72-1.77,3.32-2.77,5.05-4.12l-.1,0q-5.9,16.43-11.8,32.86c-2.4,6.66-4.74,13.35-7.29,20-.52,1.35-1.91,2.37-2.9,3.53Z"/>
    <path d="M7464.69,181.52c-4.73-3.59-.75-7.39-.11-11a52.64,52.64,0,0,1,2.72-8.58c2.44-6.75,5-13.46,7.44-20.2.54-1.5.7-3.13,1.27-4.62a6,6,0,0,1,2.9-3.31c-2.73,16.57-9.56,31.81-14.35,47.67Z"/>
    <path d="M7517.52,45.61,7505.3,84.74C7503.62,81.34,7513.15,51.09,7517.52,45.61Z"/>
    <path d="M7492.74,127.56c-3.21-2.31-2.16-5.33-1.15-8.14,1.54-4.32,3.35-8.54,5.05-12.8l1.12,5c-.89,1.47-2.85,3.33-2.48,4.35C7496.94,120.54,7494.85,124,7492.74,127.56Z"/>
    <path d="M7447,203q.77-2.54,1.53-5.07.87,4.82,1.75,9.65l-2.65.5Z"/>
    <path d="M7498.85,117.58l-1.09-6-1.12-5,2.52-1.15.64,4.78,2.5-.85Z"/>
    <path d="M7442.59,237.83l-2.51,12.24-1.46-.37c1.65-3.83-1.82-9.29,4.11-11.77Z"/>
    <path d="M7526.39,13.06l2.48-10.21,2.18.6-3.15,9.92Z"/>
    <path d="M6967.82,215c4.21,3.69,2.12,7.58.19,11.33-.36.7-1.77.87-2.7,1.28-.33-.84-1.13-1.83-.92-2.51,1-3.36,2.36-6.64,3.58-10Z"/>
    <path d="M6968,215.11c-.22-3.75-.19-7.37,4.56-9.33,1.15,5.2.31,8.38-4.71,9.18Z"/>
    <path d="M6992.89,137l4.35-14.74,1.86.55-4.5,14.66Z"/>
    <path d="M6982.43,174.47l-2.76,11.24c-2.43-5.18-1.22-8.53.39-11.82Z"/>
    <path d="M6950.81,225.1l-3-3.64,3-4.55,3.86.32Z"/>
    <path d="M6481.86,203.19l-4.47,13.68-1.31-.41c0-5.17,2.83-9.45,4.63-14.06Z"/>
  </g>
</svg>
